<svg xmlns="http://www.w3.org/2000/svg" width="15" height="15" viewBox="0 0 15 15">
  <path fill="#986081" d="M7.4979467,3.01525424 C3.36538579,3.01525424 0.0152542373,6.36711864 0.0152542373,10.5 C0.0152542373,14.6336949 3.36538579,17.9847458 7.4979467,17.9847458 C11.6305076,17.9847458 14.9806392,14.6336949 14.9806392,10.5 C14.9806392,6.36630508 11.6305076,3.01525424 7.4979467,3.01525424 Z M7.4979467,16.3576271 C4.26330888,16.3576271 1.64192651,13.7347119 1.64192651,10.5 C1.64192651,7.26528814 4.26330888,4.64237288 7.4979467,4.64237288 C10.7325845,4.64237288 13.3539669,7.26528814 13.3539669,10.5 C13.3539669,13.7347119 10.7325845,16.3576271 7.4979467,16.3576271 Z M8.067282,6.26949153 L6.9286114,6.26949153 L6.9286114,10.7359322 L9.69802095,13.5061017 L10.5032237,12.700678 L8.067282,10.2640678 L8.067282,6.26949153 Z" transform="translate(0 -3)"/>
</svg>
