<svg xmlns="http://www.w3.org/2000/svg" style="display: none;">
    <symbol id="icon-star" viewBox="0 0 512 512">
      <path d="m494 185c0 4-3 9-8 14l-103 101l24 143c0 1 0 3 0 5c0 4-1 8-3 10c-2 3-4 5-8 5c-4 0-8-2-12-4l-128-67l-128 67c-4 2-8 4-12 4c-4 0-7-2-9-5c-2-2-3-6-3-10c0-1 0-3 1-5l24-143l-104-101c-4-6-7-10-7-14c0-7 6-12 16-13l144-21l64-130c4-8 8-12 14-12c6 0 10 4 14 12l64 130l144 21c10 1 16 6 16 13z"/>
    </symbol>
    <symbol id="icon-map-pin" viewBox="0 0 512 512">
       <path d="m256 311c13 0 25-2 37-4l0 187c0 5-2 9-6 13-3 3-8 5-13 5l-36 0c-5 0-10-2-13-5-4-4-6-8-6-13l0-187c12 2 24 4 37 4z m0-311c40 0 75 14 103 43 29 28 43 63 43 103 0 41-14 75-43 104-28 28-63 43-103 43-40 0-75-15-103-43-29-29-43-63-43-104 0-40 14-75 43-103 28-29 63-43 103-43z m0 64c3 0 5-1 7-3 1-1 2-3 2-6 0-3-1-5-2-7-2-1-4-2-7-2-28 0-52 10-71 29-20 20-30 43-30 71 0 3 1 5 3 7 2 2 4 2 7 2 2 0 4 0 6-2 2-2 3-4 3-7 0-22 8-42 24-58 16-16 35-24 58-24z"/>
    </symbol>
    <symbol id="icon-check" viewBox="0 0 512 512">
          <path d="m451 155l-66-66c-3-2-6-4-9-4c-3 0-7 2-9 4l-176 176l-46-47c-5-5-13-5-18 0l-66 66c-2 3-3 6-3 9c0 3 1 7 3 9l121 121c3 2 6 4 9 4c0 0 0-1 0-1c1 0 1 1 1 1c3 0 6-2 9-4l250-250c5-5 5-13 0-18z"/>
    </symbol>
    <symbol id="icon-user" viewBox="0 0 55 55">
       <path d="M55,27.5C55,12.337,42.663,0,27.5,0S0,12.337,0,27.5c0,8.009,3.444,15.228,8.926,20.258l-0.026,0.023l0.892,0.752
       	c0.058,0.049,0.121,0.089,0.179,0.137c0.474,0.393,0.965,0.766,1.465,1.127c0.162,0.117,0.324,0.234,0.489,0.348
       	c0.534,0.368,1.082,0.717,1.642,1.048c0.122,0.072,0.245,0.142,0.368,0.212c0.613,0.349,1.239,0.678,1.88,0.98
       	c0.047,0.022,0.095,0.042,0.142,0.064c2.089,0.971,4.319,1.684,6.651,2.105c0.061,0.011,0.122,0.022,0.184,0.033
       	c0.724,0.125,1.456,0.225,2.197,0.292c0.09,0.008,0.18,0.013,0.271,0.021C25.998,54.961,26.744,55,27.5,55
       	c0.749,0,1.488-0.039,2.222-0.098c0.093-0.008,0.186-0.013,0.279-0.021c0.735-0.067,1.461-0.164,2.178-0.287
       	c0.062-0.011,0.125-0.022,0.187-0.034c2.297-0.412,4.495-1.109,6.557-2.055c0.076-0.035,0.153-0.068,0.229-0.104
       	c0.617-0.29,1.22-0.603,1.811-0.936c0.147-0.083,0.293-0.167,0.439-0.253c0.538-0.317,1.067-0.648,1.581-1
       	c0.185-0.126,0.366-0.259,0.549-0.391c0.439-0.316,0.87-0.642,1.289-0.983c0.093-0.075,0.193-0.14,0.284-0.217l0.915-0.764
       	l-0.027-0.023C51.523,42.802,55,35.55,55,27.5z M2,27.5C2,13.439,13.439,2,27.5,2S53,13.439,53,27.5
       	c0,7.577-3.325,14.389-8.589,19.063c-0.294-0.203-0.59-0.385-0.893-0.537l-8.467-4.233c-0.76-0.38-1.232-1.144-1.232-1.993v-2.957
       	c0.196-0.242,0.403-0.516,0.617-0.817c1.096-1.548,1.975-3.27,2.616-5.123c1.267-0.602,2.085-1.864,2.085-3.289v-3.545
       	c0-0.867-0.318-1.708-0.887-2.369v-4.667c0.052-0.519,0.236-3.448-1.883-5.864C34.524,9.065,31.541,8,27.5,8
       	s-7.024,1.065-8.867,3.168c-2.119,2.416-1.935,5.345-1.883,5.864v4.667c-0.568,0.661-0.887,1.502-0.887,2.369v3.545
       	c0,1.101,0.494,2.128,1.34,2.821c0.81,3.173,2.477,5.575,3.093,6.389v2.894c0,0.816-0.445,1.566-1.162,1.958l-7.907,4.313
       	c-0.252,0.137-0.502,0.297-0.752,0.476C5.276,41.792,2,35.022,2,27.5z M42.459,48.132c-0.35,0.254-0.706,0.5-1.067,0.735
       	c-0.166,0.108-0.331,0.216-0.5,0.321c-0.472,0.292-0.952,0.57-1.442,0.83c-0.108,0.057-0.217,0.111-0.326,0.167
       	c-1.126,0.577-2.291,1.073-3.488,1.476c-0.042,0.014-0.084,0.029-0.127,0.043c-0.627,0.208-1.262,0.393-1.904,0.552
       	c-0.002,0-0.004,0.001-0.006,0.001c-0.648,0.16-1.304,0.293-1.964,0.402c-0.018,0.003-0.036,0.007-0.054,0.01
       	c-0.621,0.101-1.247,0.174-1.875,0.229c-0.111,0.01-0.222,0.017-0.334,0.025C28.751,52.97,28.127,53,27.5,53
       	c-0.634,0-1.266-0.031-1.895-0.078c-0.109-0.008-0.218-0.015-0.326-0.025c-0.634-0.056-1.265-0.131-1.89-0.233
       	c-0.028-0.005-0.056-0.01-0.084-0.015c-1.322-0.221-2.623-0.546-3.89-0.971c-0.039-0.013-0.079-0.027-0.118-0.04
       	c-0.629-0.214-1.251-0.451-1.862-0.713c-0.004-0.002-0.009-0.004-0.013-0.006c-0.578-0.249-1.145-0.525-1.705-0.816
       	c-0.073-0.038-0.147-0.074-0.219-0.113c-0.511-0.273-1.011-0.568-1.504-0.876c-0.146-0.092-0.291-0.185-0.435-0.279
       	c-0.454-0.297-0.902-0.606-1.338-0.933c-0.045-0.034-0.088-0.07-0.133-0.104c0.032-0.018,0.064-0.036,0.096-0.054l7.907-4.313
       	c1.36-0.742,2.205-2.165,2.205-3.714l-0.001-3.602l-0.23-0.278c-0.022-0.025-2.184-2.655-3.001-6.216l-0.091-0.396l-0.341-0.221
       	c-0.481-0.311-0.769-0.831-0.769-1.392v-3.545c0-0.465,0.197-0.898,0.557-1.223l0.33-0.298v-5.57l-0.009-0.131
       	c-0.003-0.024-0.298-2.429,1.396-4.36C21.583,10.837,24.061,10,27.5,10c3.426,0,5.896,0.83,7.346,2.466
       	c1.692,1.911,1.415,4.361,1.413,4.381l-0.009,5.701l0.33,0.298c0.359,0.324,0.557,0.758,0.557,1.223v3.545
       	c0,0.713-0.485,1.36-1.181,1.575l-0.497,0.153l-0.16,0.495c-0.59,1.833-1.43,3.526-2.496,5.032c-0.262,0.37-0.517,0.698-0.736,0.949
       	l-0.248,0.283V39.8c0,1.612,0.896,3.062,2.338,3.782l8.467,4.233c0.054,0.027,0.107,0.055,0.16,0.083
       	C42.677,47.979,42.567,48.054,42.459,48.132z"/>
    </symbol>
     <symbol id="icon-logout" viewBox="0 0 512 512">
        <path d="M505.664,243.739l-54.783-38.622c-9.926-6.997-23.645,0.128-23.645,12.26v23.622H164.196    c-8.284,0-15.001,6.716-15.001,15.001S155.912,271,164.196,271h263.038v23.621c0,12.212,13.792,19.204,23.644,12.26l54.783-38.622    C514.027,262.365,514.196,249.767,505.664,243.739z"/>
        <path d="M430.471,352.317c-7.169-4.146-16.347-1.698-20.496,5.474c-35.236,60.916-101.103,101.811-176.372,101.811    c-112.266,0-203.602-91.336-203.602-203.602S121.337,52.398,233.603,52.398c75.319,0,141.156,40.933,176.371,101.809    c4.148,7.172,13.328,9.619,20.496,5.474c7.171-4.148,9.621-13.325,5.474-20.496C395.418,69.127,319.729,22.397,233.603,22.397    C104.49,22.397,0,126.876,0,256c0,129.113,104.479,233.603,233.603,233.603c86.163,0,161.833-46.763,202.342-116.79    C440.092,365.642,437.642,356.466,430.471,352.317z"/>
     </symbol>

</svg>
