<svg xmlns="http://www.w3.org/2000/svg" width="128" height="30" viewBox="0 0 128 30">
  <defs>
    <linearGradient id="logo-a" x1="28.249%" x2="144.94%" y1="0%" y2="100%">
      <stop offset="0%" stop-color="#E15E87"/>
      <stop offset="100%" stop-color="#3F6279"/>
    </linearGradient>
  </defs>
  <path fill="url(#logo-a)" fill-rule="evenodd" d="M19.92,19.08 L15.92,19.24 C15.36,16.72 12.64,15.64 10.2,15.68 C8.32,15.72 6.24,16.36 5.12,17.8 C4.56,18.52 4.36,19.44 4.44,20.4 C4.64,23.28 7.8,23.64 10.8,23.92 C14.64,24.4 19.4,25.4 20.48,29.88 C20.6,30.48 20.68,31.16 20.68,31.72 C20.68,37.12 15.32,40.24 10.28,40.24 C5.96,40.24 0.72,37.68 0.2,32.68 L0.16,31.92 L4.24,31.84 L4.28,32.44 L4.28,32.28 C4.56,34.88 7.72,36.24 10.32,36.24 C13.32,36.24 16.6,34.56 16.6,31.68 C16.6,31.4 16.56,31.08 16.48,30.72 C16,28.6 13.12,28.24 10.32,27.96 C5.96,27.52 0.84,26.56 0.4,20.72 L0.4,20.76 C0.24,18.88 0.72,17 1.92,15.44 C3.8,13 7.16,11.72 10.4,11.72 C14.72,11.72 19.2,13.96 19.92,19.08 Z M20.0533333,12 L30.2933333,12 C36.3333333,12 39.3733333,16.68 39.3733333,21.36 C39.3733333,26.04 36.3333333,30.68 30.2933333,30.68 L24.1333333,30.68 L24.1333333,40 L20.0533333,40 L20.0533333,12 Z M24.1333333,26.68 L30.2933333,26.68 C33.6933333,26.68 35.3733333,24.04 35.3733333,21.4 C35.3733333,18.72 33.6933333,16.08 30.2933333,16.08 L24.1333333,16.08 L24.1333333,26.68 Z M46.4266665,18.08 L42.9066665,27.96 L49.8666665,27.96 L46.4266665,18.08 Z M54.7866665,40 L51.4266665,31.76 L41.3866665,31.76 C40.3066665,34.32 38.9066665,37.68 38.0266665,40 L33.6666665,40 L44.9066665,11.64 L47.8666665,11.64 L59.1066665,40 L54.7866665,40 Z M75.7599998,19.08 L71.7599998,19.24 C71.1999998,16.72 68.4799998,15.64 66.0399998,15.68 C64.1599998,15.72 62.0799998,16.36 60.9599998,17.8 C60.3999998,18.52 60.1999998,19.44 60.2799998,20.4 C60.4799998,23.28 63.6399998,23.64 66.6399998,23.92 C70.4799998,24.4 75.2399998,25.4 76.3199998,29.88 C76.4399998,30.48 76.5199998,31.16 76.5199998,31.72 C76.5199998,37.12 71.1599998,40.24 66.1199998,40.24 C61.7999998,40.24 56.5599998,37.68 56.0399998,32.68 L55.9999998,31.92 L60.0799998,31.84 L60.1199998,32.44 L60.1199998,32.28 C60.3999998,34.88 63.5599998,36.24 66.1599998,36.24 C69.1599998,36.24 72.4399998,34.56 72.4399998,31.68 C72.4399998,31.4 72.3999998,31.08 72.3199998,30.72 C71.8399998,28.6 68.9599998,28.24 66.1599998,27.96 C61.7999998,27.52 56.6799998,26.56 56.2399998,20.72 L56.2399998,20.76 C56.0799998,18.88 56.5599998,17 57.7599998,15.44 C59.6399998,13 62.9999998,11.72 66.2399998,11.72 C70.5599998,11.72 75.0399998,13.96 75.7599998,19.08 Z M77.613333,35.2 C79.093333,35.2 80.133333,36.2 80.133333,37.68 C80.133333,38.88 79.093333,40.12 77.613333,40.12 C76.293333,40.12 75.213333,38.88 75.213333,37.68 C75.213333,36.2 76.293333,35.2 77.613333,35.2 Z M83.5866663,40 L79.5466663,40 L79.5466663,11.96 L82.6666663,12 L96.3066663,31.72 L96.3066663,12 L100.306666,12 L100.306666,40 L97.1066663,40 L83.5866663,20.44 L83.5866663,40 Z M126.96,22.04 L122.64,22.04 C121.52,17.52 117.2,15.88 113.64,15.88 C108.16,15.88 103.92,20.16 103.92,26.04 C103.92,31.96 108.16,36.32 113.64,36.32 C117.08,36.32 120.76,34.72 122.44,30.64 L112.08,30.64 L112.08,26.6 L127.16,26.6 C126.96,28.96 126.76,30.52 126.4,31.44 L126.4,31.4 C124.48,36.76 118.72,40.2 113.64,40.2 C105.8,40.2 99.8799995,34.28 99.8799995,26.04 C99.8799995,17.76 105.92,11.84 113.64,11.84 C119,11.84 125.48,14.6 126.96,22.04 Z" transform="translate(0 -11)"/>
</svg>
