<svg xmlns="http://www.w3.org/2000/svg" width="256" height="256" viewBox="0 0 256 256">
  <g fill="none">
    <path fill="#84A7B7" d="M43.0355,220.726 C44.8315,222.85 45.5985,225.6435 45.142,228.389 L41.6965,249.104 C41.367,251.085 39.6545,252.489 37.714,252.489 C37.493,252.489 37.2695,252.4705 37.0445,252.4335 C34.8425,252.0655 33.355,249.9785 33.722,247.772 L37.1675,227.0565 C37.257,226.519 37.017,226.1405 36.867,225.962 C36.716,225.7835 36.382,225.4845 35.8385,225.4845 L16.226,225.4845 C15.6825,225.4845 15.3485,225.7835 15.1975,225.962 C15.0465,226.1405 14.8075,226.52 14.896,227.0565 L18.3415,247.772 C18.7085,249.979 17.221,252.0655 15.019,252.4335 C12.8185,252.8005 10.7345,251.3105 10.3675,249.104 L6.922,228.3885 C6.4655,225.6425 7.2335,222.8495 9.0295,220.725 C10.8255,218.601 13.448,217.383 16.226,217.383 L22.905,217.383 L22.905,175.797 C22.905,173.56 24.715,171.7465 26.947,171.7465 L86.231,171.7465 C88.4635,171.7465 90.273,173.56 90.273,175.797 C90.273,178.034 88.463,179.8475 86.231,179.8475 L30.9895,179.8475 L30.9895,217.383 L35.839,217.383 C38.6165,217.383 41.2395,218.601 43.0355,220.726 Z M165.7265,240.3365 L90.2735,240.3365 C88.041,240.3365 86.2315,242.15 86.2315,244.387 C86.2315,246.624 88.0415,248.4375 90.2735,248.4375 L165.726,248.4375 C167.9585,248.4375 169.768,246.624 169.768,244.387 C169.7685,242.15 167.9585,240.3365 165.7265,240.3365 Z"/>
    <path fill="#547D87" d="M189.325,150.4675 L175.1975,207.096 C172.798,216.713 164.1755,223.4595 154.283,223.4595 L101.7155,223.4595 C91.823,223.4595 83.2005,216.713 80.801,207.096 L66.6735,150.4675 C64.9725,143.65 70.118,137.046 77.1305,137.046 L178.867,137.046 C185.881,137.046 191.026,143.6505 189.325,150.4675 Z"/>
    <path fill="#6B95A0" d="M240.651,178.204 C239.9325,179.4705 238.5905,180.2525 237.137,180.2525 L159.985,180.2525 C154.7755,193.1585 142.2085,201.8555 128,201.8555 L128,201.8555 C112.163,201.8555 98.358,191.0545 94.517,175.658 L91.581,163.889 C88.179,150.254 98.4705,137.046 112.4955,137.046 L171.1165,137.046 L162.3585,172.1515 L230.0275,172.1515 L192.6315,109.195 C189.4695,111.0195 185.805,112.068 181.895,112.068 L74.106,112.068 C62.2,112.068 52.548,102.396 52.548,90.465 L52.548,79.6635 C52.548,37.904 86.329,4.052 128.0005,4.052 L128.0005,4.052 C169.672,4.052 203.453,37.9045 203.453,79.6635 L203.453,90.465 C203.453,95.5035 201.7265,100.136 198.841,103.8105 L240.6105,174.1315 C241.3535,175.382 241.369,176.9375 240.651,178.204 Z"/>
    <path fill="#547D87" d="M251.958,164.05 C251.958,172.998 244.7195,180.2525 235.7895,180.2525 C226.8595,180.2525 219.621,172.9985 219.621,164.05 C219.621,155.102 226.8595,147.8475 235.7895,147.8475 C244.7195,147.8475 251.958,155.102 251.958,164.05 Z M20.2105,147.8475 C11.2805,147.8475 4.042,155.1015 4.042,164.05 C4.042,172.9985 11.2805,180.2525 20.2105,180.2525 C29.1405,180.2525 36.379,172.9985 36.379,164.05 C36.379,155.102 29.1405,147.8475 20.2105,147.8475 Z"/>
    <path fill="#6B95A0" d="M25.6,164.05 C25.6,167.033 23.187,169.451 20.2105,169.451 C17.234,169.451 14.821,167.0335 14.821,164.05 C14.821,161.0665 17.234,158.649 20.2105,158.649 C23.187,158.649 25.6,161.0675 25.6,164.05 Z M235.7895,158.6495 C232.813,158.6495 230.4,161.067 230.4,164.0505 C230.4,167.034 232.813,169.4515 235.7895,169.4515 C238.766,169.4515 241.179,167.034 241.179,164.0505 C241.179,161.0675 238.766,158.6495 235.7895,158.6495 Z"/>
    <path fill="#FC8059" d="M99.7055,190.5145 L99.7055,191.0545 C99.7055,193.2915 97.8955,195.105 95.6635,195.105 C93.431,195.105 91.6215,193.2915 91.6215,191.0545 L91.6215,190.5145 C91.6215,188.2775 93.4315,186.464 95.6635,186.464 C97.8955,186.464 99.7055,188.2775 99.7055,190.5145 Z"/>
    <path fill="#FFD880" d="M115.8735,190.5145 L115.8735,191.0545 C115.8735,193.2915 114.0635,195.105 111.8315,195.105 C109.599,195.105 107.7895,193.2915 107.7895,191.0545 L107.7895,190.5145 C107.7895,188.2775 109.5995,186.464 111.8315,186.464 C114.064,186.464 115.8735,188.2775 115.8735,190.5145 Z"/>
    <path fill="#B5E5BC" d="M158.9895,190.5145 L158.9895,191.0545 C158.9895,193.2915 157.1795,195.105 154.9475,195.105 C152.715,195.105 150.9055,193.2915 150.9055,191.0545 L150.9055,190.5145 C150.9055,188.2775 152.7155,186.464 154.9475,186.464 C157.1795,186.464 158.9895,188.2775 158.9895,190.5145 Z"/>
    <path fill="#CFDFE2" d="M106.442,174.8515 L95.663,174.8515 C92.6865,174.8515 90.2735,172.4385 90.2735,169.462 L90.2735,158.638 C90.2735,155.6615 92.6865,153.2485 95.663,153.2485 L106.442,153.2485 C109.4185,153.2485 111.8315,155.6615 111.8315,158.638 L111.8315,169.462 C111.8315,172.439 109.4185,174.8515 106.442,174.8515 Z"/>
    <path fill="#547D87" d="M79.4945,60.7595 C79.4945,45.846 91.5595,33.7555 106.442,33.7555 C121.3245,33.7555 133.3895,45.8455 133.3895,60.7595 C133.3895,75.6735 121.3245,87.7635 106.442,87.7635 C91.5595,87.7635 79.4945,75.6735 79.4945,60.7595 Z"/>
    <path fill="#CFDFE2" d="M90.2735,60.7595 C90.2735,51.8115 97.512,44.557 106.442,44.557 C115.372,44.557 122.6105,51.811 122.6105,60.7595 C122.6105,69.708 115.372,76.962 106.442,76.962 C97.512,76.962 90.2735,69.708 90.2735,60.7595 Z"/>
    <path fill="#FFF" d="M106.442,60.7595 C106.442,56.285 110.0615,52.658 114.526,52.658 C118.9905,52.658 122.61,56.285 122.61,60.7595 C122.61,65.234 118.9905,68.861 114.526,68.861 C110.0615,68.861 106.442,65.234 106.442,60.7595 Z"/>
    <path fill="#84A7B7" d="M213.825,20.6605 C235.9245,42.8065 235.9245,78.7125 213.825,100.8585 C191.7255,123.0045 155.895,123.0045 133.7955,100.8585 C111.696,78.7125 111.696,42.8065 133.7955,20.6605 C155.895,-1.4855 191.7255,-1.4855 213.825,20.6605 Z"/>
    <path fill="#C3E4ED" d="M211.537,60.7595 C211.537,81.639 194.6465,98.565 173.8105,98.565 C152.9745,98.565 136.084,81.639 136.084,60.7595 C136.084,39.88 152.9745,22.954 173.8105,22.954 C194.6465,22.954 211.537,39.8805 211.537,60.7595 Z"/>
    <path fill="#DCF3F9" d="M196.4035,30.481 C202.286,34.896 206.834,40.994 209.3485,48.0605 L161.1375,96.373 C154.0865,93.853 148.0005,89.2955 143.5955,83.4005 L196.4035,30.481 Z M138.2725,73.459 C138.904,75.233 139.662,76.9465 140.5395,78.587 L191.6005,27.418 C189.963,26.539 188.2535,25.7795 186.483,25.147 L138.2725,73.459 Z"/>
    <path fill="#FFF" d="M173.9785,32.49 C179.9315,32.49 184.7575,37.326 184.7575,43.2915 C184.7575,49.257 179.932,54.093 173.9785,54.093 C168.0255,54.093 163.1995,49.257 163.1995,43.2915 C163.1995,37.326 168.026,32.49 173.9785,32.49 Z"/>
    <path fill="#4C4C4C" d="M169.7685,250.464 C169.7685,252.701 167.9595,254.5145 165.7265,254.5145 L90.2735,254.5145 C88.0405,254.5145 86.2315,252.701 86.2315,250.464 C86.2315,248.227 88.0405,246.4135 90.2735,246.4135 L165.726,246.4135 C167.959,246.413 169.7685,248.2265 169.7685,250.464 Z M256,164.0505 C256,175.218 246.934,184.3035 235.7895,184.3035 C228.0495,184.3035 221.312,179.921 217.918,173.502 L184.68,173.502 C184.622,173.503 184.563,173.503 184.505,173.502 L138.779,173.502 C136.546,173.502 134.737,171.689 134.737,169.4515 C134.737,167.214 136.546,165.401 138.779,165.401 L181.434,165.401 L185.404,149.4855 C185.9105,147.455 185.464,145.3435 184.179,143.694 C182.893,142.0435 180.9575,141.0975 178.869,141.0975 L77.1315,141.0975 C75.0425,141.0975 73.107,142.044 71.8215,143.694 C70.536,145.3435 70.0895,147.4555 70.5965,149.4855 L84.724,206.113 C86.6765,213.942 93.6645,219.409 101.7165,219.409 L154.284,219.409 C162.336,219.409 169.324,213.942 171.2765,206.113 L177.9735,179.27 C178.5155,177.1 180.709,175.7835 182.876,176.3225 C185.042,176.865 186.3585,179.0645 185.817,181.235 L179.12,208.078 C176.2655,219.519 166.053,227.5095 154.284,227.5095 L101.716,227.5095 C89.947,227.5095 79.7345,219.5185 76.88,208.077 L68.625,174.986 L38.082,174.986 C35.295,180.2565 30.2525,184.155 24.2525,185.381 L24.2525,220.893 L30.0165,220.893 C32.794,220.893 35.4175,222.1115 37.213,224.2355 C39.009,226.3595 39.777,229.1525 39.3205,231.8975 L35.8745,252.6135 C35.545,254.5945 33.833,255.9985 31.892,255.9985 C31.6715,255.9985 31.448,255.9805 31.2225,255.9425 C29.021,255.575 27.533,253.488 27.9,251.281 L31.3455,230.5655 C31.435,230.0295 31.1955,229.6495 31.045,229.471 C30.894,229.2925 30.56,228.9935 30.0165,228.9935 L10.4045,228.9935 C9.861,228.9935 9.527,229.2925 9.376,229.471 C9.2255,229.6495 8.986,230.029 9.0755,230.566 L12.521,251.281 C12.888,253.488 11.4,255.575 9.1985,255.9425 C6.9885,256.312 4.914,254.82 4.547,252.6135 L1.101,231.898 C0.6445,229.1515 1.4125,226.359 3.2085,224.235 C5.0035,222.111 7.627,220.8925 10.405,220.8925 L16.169,220.8925 L16.169,185.381 C6.9545,183.4995 0,175.316 0,165.536 C0,154.3685 9.066,145.283 20.2105,145.283 C31.355,145.283 40.421,154.368 40.421,165.536 C40.421,165.9905 40.4065,166.4395 40.377,166.886 L66.6045,166.886 L62.753,151.4505 C61.6385,146.9825 62.621,142.338 65.4495,138.708 C68.278,135.078 72.5355,132.996 77.1315,132.996 L178.8685,132.996 C183.464,132.996 187.7225,135.0785 190.5505,138.708 C193.379,142.3385 194.3615,146.983 193.247,151.4505 L189.7665,165.4005 L215.6235,165.4005 C215.594,164.9535 215.5795,164.504 215.5795,164.0505 C215.5795,157.443 218.7535,151.564 223.6535,147.8655 L203.4145,113.7915 C186.5965,123.211 166.2175,123.988 148.8135,116.118 L74.1055,116.118 C59.99,116.118 48.5055,104.61 48.5055,90.464 L48.5055,79.6625 C48.5055,35.7365 84.1665,0.0005 128,0.0005 C136.379,0.0005 144.622,1.3015 152.527,3.8695 C174.099,-4.1975 199.367,0.4435 216.684,17.796 C240.324,41.4865 240.324,80.0325 216.684,103.723 C214.6265,105.7845 212.458,107.666 210.1955,109.3685 L230.988,144.375 C232.527,143.997 234.1355,143.7975 235.7895,143.7975 C246.934,143.7975 256,152.883 256,164.0505 Z M135.6955,108.017 C134.0535,106.6845 132.464,105.2525 130.937,103.723 C123.393,96.162 118.081,86.9605 115.335,76.9205 C112.5885,78.2705 109.551,78.9875 106.442,78.9875 C95.2975,78.9875 86.2315,69.902 86.2315,58.7345 C86.2315,47.567 95.2975,38.4815 106.442,38.4815 C109.955,38.4815 113.388,39.41 116.401,41.1195 C119.3515,32.434 124.2735,24.4745 130.9375,17.796 C134.187,14.54 137.717,11.731 141.4495,9.37 C137.038,8.5265 132.542,8.1015 128,8.1015 C88.624,8.1015 56.5895,40.204 56.5895,79.6625 L56.5895,90.464 C56.5895,100.143 64.447,108.0165 74.1055,108.0165 L135.6955,108.0165 L135.6955,108.017 Z M113.179,60.7595 C113.179,56.912 113.5335,53.1185 114.2275,49.4175 C112.052,47.5795 109.338,46.5825 106.4425,46.5825 C99.7565,46.5825 94.316,52.034 94.316,58.734 C94.316,65.434 99.756,70.8855 106.4425,70.8855 C109.054,70.8855 111.5815,70.0425 113.663,68.4935 C113.3415,65.9495 113.179,63.3665 113.179,60.7595 Z M210.9665,97.9945 C220.892,88.049 226.358,74.825 226.358,60.7595 C226.358,46.694 220.892,33.4705 210.9665,23.5245 C201.042,13.578 187.846,8.101 173.8105,8.101 C167.0645,8.101 160.5135,9.3665 154.426,11.7845 C154.2255,11.8855 154.017,11.9695 153.8025,12.0365 C147.4645,14.65 141.646,18.5215 136.6545,23.524 C126.7295,33.4695 121.263,46.6935 121.263,60.759 C121.263,74.8245 126.729,88.048 136.6545,97.994 C157.1415,118.5255 190.4795,118.5255 210.9665,97.9945 Z M32.337,165.536 C32.337,158.836 26.897,153.3845 20.2105,153.3845 C13.524,153.3845 8.084,158.8355 8.084,165.536 C8.084,172.236 13.524,177.6875 20.2105,177.6875 C26.897,177.6875 32.337,172.236 32.337,165.536 Z M247.916,164.0505 C247.916,157.3505 242.476,151.899 235.7895,151.899 C234.049,151.899 232.3925,152.2685 230.895,152.933 C230.8575,152.951 230.819,152.968 230.7805,152.984 C226.5865,154.898 223.663,159.138 223.663,164.05 C223.663,165.442 223.898,166.779 224.329,168.026 C224.347,168.074 224.3635,168.122 224.38,168.17 C226.068,172.8485 230.545,176.202 235.789,176.202 C242.4755,176.2025 247.916,170.751 247.916,164.0505 Z M215.579,60.7595 C215.579,71.94 211.234,82.451 203.3455,90.3565 C195.4565,98.2625 184.9675,102.616 173.8105,102.616 C162.6535,102.616 152.165,98.262 144.2755,90.3565 C136.387,82.451 132.042,71.94 132.042,60.7595 C132.042,49.579 136.387,39.068 144.2755,31.1625 C152.164,23.257 162.6535,18.903 173.8105,18.903 C184.9675,18.903 195.456,23.257 203.3455,31.1625 C211.235,39.068 215.579,49.5795 215.579,60.7595 Z M207.4945,60.7595 C207.4945,51.7435 203.991,43.2665 197.628,36.8915 C191.267,30.515 182.8075,27.004 173.8105,27.004 C164.8135,27.004 156.354,30.515 149.993,36.891 C143.63,43.266 140.1265,51.743 140.1265,60.7595 C140.1265,69.776 143.63,78.2525 149.993,84.6275 C156.3545,91.004 164.8135,94.5145 173.8105,94.5145 C182.8075,94.5145 191.267,91.0035 197.628,84.6275 C203.991,78.253 207.4945,69.776 207.4945,60.7595 Z M106.442,149.1985 C111.6425,149.1985 115.8735,153.4385 115.8735,158.65 L115.8735,169.4515 C115.8735,174.663 111.642,178.903 106.442,178.903 L95.663,178.903 C90.4625,178.903 86.2315,174.663 86.2315,169.4515 L86.2315,158.65 C86.2315,153.4385 90.463,149.1985 95.663,149.1985 L106.442,149.1985 Z M106.442,157.299 L95.663,157.299 C94.92,157.299 94.3155,157.904 94.3155,158.649 L94.3155,169.4505 C94.3155,170.1955 94.9195,170.8005 95.663,170.8005 L106.442,170.8005 C107.185,170.8005 107.7895,170.1955 107.7895,169.4505 L107.7895,158.649 C107.7895,157.905 107.1855,157.299 106.442,157.299 Z"/>
  </g>
</svg>
